<svg width="92" height="96" viewBox="0 0 92 96" fill="none" xmlns="http://www.w3.org/2000/svg">
<path d="M87.1856 89.4557C87.1856 93.0699 67.6687 96.0001 43.5928 96.0001C19.5169 96.0001 0 93.0699 0 89.4557C0 86.8971 9.78307 84.6805 24.0407 83.6052C29.9201 83.1605 36.5631 82.9114 43.5928 82.9114C46.4826 82.9114 49.3063 82.9536 52.0371 83.0338C72.0716 83.6249 87.1856 86.275 87.1856 89.4557Z" fill="#3F3D56"/>
<path opacity="0.1" d="M37.9679 90.7926C47.2098 90.7926 54.7019 89.879 54.7019 88.7519C54.7019 87.6248 47.2098 86.7112 37.9679 86.7112C28.726 86.7112 21.2339 87.6248 21.2339 88.7519C21.2339 89.879 28.726 90.7926 37.9679 90.7926Z" fill="black"/>
<path d="M37.8976 90.2298C46.6347 90.2298 53.7176 82.6684 53.7176 73.3411C53.7176 64.0137 46.6347 56.4524 37.8976 56.4524C29.1605 56.4524 22.0776 64.0137 22.0776 73.3411C22.0776 82.6684 29.1605 90.2298 37.8976 90.2298Z" fill="#3F3D56"/>
<path d="M42.8897 83.3335H33.0461V92.3408H42.8897V83.3335Z" fill="#FCFDAF"/>
<path d="M55.7566 85.5149L55.1941 88.6112L58.8503 89.1741L61.2408 87.7667L61.1002 85.5149H55.7566Z" fill="#FCFDAF"/>
<path d="M37.3351 27.3898C37.3351 27.3898 37.0538 30.6268 36.3507 30.7675C35.6476 30.9083 37.8975 36.5378 37.8975 36.5378H41.2725L43.9443 35.8342L42.6787 32.7379C42.6787 32.7379 40.9912 30.4861 42.2568 28.6565C43.5224 26.8268 37.3351 27.3898 37.3351 27.3898Z" fill="#A0616A"/>
<path opacity="0.1" d="M37.3351 27.3898C37.3351 27.3898 37.0538 30.6268 36.3507 30.7675C35.6476 30.9083 37.8975 36.5378 37.8975 36.5378H41.2725L43.9443 35.8342L42.6787 32.7379C42.6787 32.7379 40.9912 30.4861 42.2568 28.6565C43.5224 26.8268 37.3351 27.3898 37.3351 27.3898Z" fill="black"/>
<path d="M30.3039 52.1599C30.3039 52.1599 26.6477 59.1968 29.6008 60.6042C32.5539 62.0116 33.257 61.8709 33.257 62.2931C33.257 62.7153 32.6945 62.5746 32.9757 63.2783C33.257 63.982 32.4132 66.7967 33.257 68.4856C34.1007 70.1745 33.8195 71.4411 33.8195 71.4411C33.8195 71.4411 33.8195 71.5819 34.1007 72.1448C34.3819 72.7078 34.5226 73.13 34.3819 73.4115C34.2413 73.6929 33.3976 75.5226 34.2413 75.9448C35.0851 76.367 39.4443 76.6485 39.8662 75.9448C40.2881 75.2411 39.4443 74.8189 39.8662 74.3966C40.2881 73.9744 40.5693 73.8337 40.2881 73.5522C40.0068 73.2707 39.7256 69.7523 39.7256 69.7523C39.7256 69.7523 40.4287 65.6708 40.1474 65.1079C39.8662 64.5449 39.4443 63.982 39.7256 63.5597C40.0068 63.1375 40.2881 63.2783 40.4287 62.7153C40.5693 62.1523 40.8506 60.8857 40.8506 60.8857L42.3974 60.745L46.0536 61.4487C46.0536 61.4487 50.1316 65.9523 54.6315 67.3597C54.6315 67.3597 55.8971 68.6263 56.319 68.6263C56.7408 68.6263 56.7408 68.6263 56.6002 68.9078C56.4596 69.1893 56.0377 69.1893 56.319 69.4708C56.6002 69.7523 57.0221 69.33 56.7408 69.7523C56.4596 70.1745 56.1783 70.1745 56.4596 70.4559C56.7408 70.7374 56.319 72.2856 56.319 72.4263C56.319 72.567 55.0534 85.7965 55.4752 86.078C55.8971 86.3595 61.8032 87.2039 62.2251 86.078C62.6469 84.9521 61.9438 83.5447 61.9438 83.5447C61.9438 83.5447 64.0532 66.656 63.4907 65.5301C62.9282 64.4042 60.9595 59.3376 50.4128 56.1006C50.4128 56.1006 47.4598 55.5376 47.4598 55.1154C47.4598 54.6932 47.1785 52.0191 46.6161 51.8784C46.0536 51.7377 42.8193 51.5969 42.8193 51.5969L38.7412 52.8636L33.1164 51.8784L30.3039 52.1599Z" fill="#2F2E41"/>
<path d="M35.2259 75.8038L34.5228 78.3371C34.5228 78.3371 33.9603 82.4186 34.6634 83.4037C35.2157 84.1776 36.2018 85.1251 38.0306 85.2914C38.5431 85.3384 39.0563 85.209 39.4853 84.9244C39.9144 84.6399 40.2335 84.2174 40.39 83.7267C40.411 83.6679 40.4241 83.6066 40.429 83.5445C40.429 83.263 40.0071 79.8852 40.0071 79.8852L39.304 76.3668L39.1634 75.3816L35.2259 75.8038Z" fill="#2F2E41"/>
<path d="M55.7566 87.9075C55.7566 87.9075 55.0535 87.2038 54.9129 87.9075C54.7723 88.6112 54.2098 91.5667 55.1942 91.7074C56.1785 91.8482 65.6002 93.2556 66.5845 92.6926C67.5689 92.1297 69.397 91.2852 68.272 90.863C67.147 90.4408 63.9127 89.1741 63.9127 89.1741C63.9127 89.1741 62.0846 86.7816 61.8034 86.6408C61.5221 86.5001 59.9753 86.7816 59.2722 87.3445C58.5691 87.9075 55.7566 87.9075 55.7566 87.9075Z" fill="#2F2E41"/>
<path d="M40.7101 30.3452C43.1177 30.3452 45.0694 28.3919 45.0694 25.9823C45.0694 23.5727 43.1177 21.6194 40.7101 21.6194C38.3025 21.6194 36.3508 23.5727 36.3508 25.9823C36.3508 28.3919 38.3025 30.3452 40.7101 30.3452Z" fill="#A0616A"/>
<path d="M40.2881 35.8342L38.6007 34.0046L36.7302 30.3453C36.7302 30.3453 35.3664 29.9231 35.0851 30.6268C34.8039 31.3305 29.7415 33.5823 29.7415 33.5823C29.7415 33.5823 31.0071 45.4044 30.4446 46.5303C29.8821 47.6562 28.8978 52.1599 29.7415 52.5821C30.5852 53.0043 34.5226 52.5821 35.7882 53.1451C37.0538 53.708 40.71 53.708 41.6944 53.0043C42.6787 52.3006 42.96 51.7377 43.9443 52.1599C44.7823 52.5193 46.7414 40.2307 47.3054 36.5687C47.3529 36.2611 47.3135 35.9464 47.1915 35.6601C47.0695 35.3738 46.8699 35.1274 46.6152 34.9488C45.3535 34.063 43.081 32.5366 42.6787 32.7379C42.1162 33.0194 40.2881 35.8342 40.2881 35.8342Z" fill="#FCFDAF"/>
<path d="M46.3349 35.2712C46.6651 35.3539 46.9622 35.5356 47.1862 35.7921C47.4102 36.0486 47.5504 36.3676 47.5879 36.7062L48.7255 46.9526C48.7255 46.9526 45.9131 53.0043 44.5068 48.9229C43.1006 44.8415 46.3349 35.2712 46.3349 35.2712Z" fill="#FCFDAF"/>
<path d="M46.0535 47.9377L49.1472 47.0933C49.1472 47.0933 49.7097 51.034 50.2722 51.034C50.8347 51.034 48.3035 53.2858 47.0379 53.0043C45.7723 52.7228 43.9442 51.7377 43.8036 51.034C43.663 50.3303 45.0692 47.3747 45.0692 47.3747L46.0535 47.9377Z" fill="#FCFDAF"/>
<path d="M37.4193 27.8644C37.7157 27.2102 37.6642 26.4472 37.9093 25.7721C38.0405 25.4106 38.2535 25.0844 38.5315 24.8189C38.8095 24.5534 39.1452 24.3558 39.5121 24.2416C39.8791 24.1274 40.2675 24.0997 40.6469 24.1606C41.0263 24.2215 41.3866 24.3693 41.6995 24.5926C42.0147 24.8176 42.3308 25.1336 42.7156 25.0907C43.1299 25.0444 43.4995 24.5818 43.8805 24.7513C44.3027 24.9393 44.1887 25.6966 44.6165 25.8716C44.8417 25.9637 45.1078 25.8219 45.2376 25.616C45.3512 25.3997 45.4131 25.16 45.4185 24.9157C45.4775 24.3154 45.5308 23.6801 45.2707 23.1361C45.1613 22.9516 45.066 22.7592 44.9855 22.5604C44.94 22.3748 44.9217 22.1835 44.9313 21.9926C44.9289 21.2871 44.8774 20.5512 44.5227 19.9415C44.129 19.2649 43.4013 18.8323 42.6421 18.6436C41.8829 18.4548 41.0875 18.4837 40.3081 18.5498C39.0195 18.6589 37.6757 18.893 36.6605 19.6947C36.5225 19.7956 36.4038 19.9204 36.3099 20.0634C36.2208 20.2331 36.1578 20.4154 36.1231 20.604C35.9036 21.4986 35.5746 22.3625 35.1433 23.1763C34.9359 23.5213 34.7664 23.8877 34.6377 24.2692C34.5301 24.6569 34.5373 25.0986 34.7627 25.4318C34.9462 25.7031 35.2395 25.8477 35.47 26.0694C35.6983 26.2892 35.8052 26.7118 36.0581 26.8782C36.2789 27.0235 36.5434 26.921 36.7687 27.0749C37.0578 27.2726 37.0787 27.706 37.4193 27.8644Z" fill="#2F2E41"/>
<path d="M40.9912 37.945L41.4131 37.1006C41.4131 37.1006 47.6004 38.9302 48.866 40.6191C48.866 40.6191 51.9597 38.6487 53.6472 38.9302L55.3347 39.2117L50.1316 43.8561L43.5224 43.2931L40.9912 37.945Z" fill="#FCFDAF"/>
<path d="M40.7101 37.1006L34.9446 45.1227L43.2413 49.2042C43.2413 49.2042 44.0169 49.6264 44.6134 49.2042L50.1317 46.6708L55.3348 39.2117L50.1317 41.8857C50.1317 41.8857 49.5693 40.7598 48.4443 41.3228L40.7101 37.1006Z" fill="#FCFDAF"/>
<path d="M49.5693 51.3153L50.6943 48.3598C50.6943 48.3598 53.2255 45.1228 51.8193 43.5747C50.4131 42.0265 48.8662 48.0783 48.8662 48.0783L49.5693 51.3153Z" fill="#A0616A"/>
<path d="M36.5896 50.8437L39.0443 48.852C39.0443 48.852 42.8566 47.3228 42.4162 45.2775C41.9759 43.2323 37.6041 47.6905 37.6041 47.6905L36.5896 50.8437Z" fill="#A0616A"/>
<path opacity="0.1" d="M30.5149 36.6082H30.3743C30.3743 36.6082 28.1946 34.0045 27.7727 37.523C27.3509 41.0415 25.9447 52.7228 29.6008 53.145C33.257 53.5672 35.8585 51.3858 35.8585 51.3858C35.8585 51.3858 38.5303 47.3043 37.546 47.3043C37.0697 47.3043 35.7744 47.0903 34.5929 47.1636C33.3326 47.2419 32.2001 47.5972 32.2726 47.234C32.4133 46.5303 34.4523 37.5934 30.5149 36.6082Z" fill="black"/>
<path d="M30.3039 33.8638L29.7414 33.5823C29.7414 33.5823 27.4915 34.0045 27.0696 37.523C26.6478 41.0414 25.2415 52.7228 28.8977 53.145C32.5539 53.5672 37.4756 52.582 37.4756 52.582C37.4756 52.582 38.46 47.234 37.4756 47.234C36.4913 47.234 31.4289 47.9377 31.5695 47.234C31.7101 46.5303 34.2413 34.8489 30.3039 33.8638Z" fill="#FCFDAF"/>
<path d="M47.5303 49.697L49.0809 47.3184L50.0615 51.2451L47.5303 52.371V49.697Z" fill="#FCFDAF"/>
<path d="M15.6755 15.7789C17.7724 15.7789 19.4722 14.0776 19.4722 11.9789C19.4722 9.88025 17.7724 8.17896 15.6755 8.17896C13.5785 8.17896 11.8787 9.88025 11.8787 11.9789C11.8787 14.0776 13.5785 15.7789 15.6755 15.7789Z" fill="#FCFDAF"/>
<path d="M20.1753 40.2673H11.1755V49.2746H20.1753V40.2673Z" fill="#FCFDAF"/>
<path d="M52.3113 0L54.5893 3.94872L56.8671 7.89743H52.3113H47.7556L50.0334 3.94872L52.3113 0Z" fill="#FCFDAF"/>
<path d="M92 23.6763C91.9456 25.361 91.5356 26.7113 90.7703 27.7273C90.0047 28.7434 89.0953 29.2514 88.042 29.2515C87.184 29.2515 86.4321 28.7543 85.7861 27.7599C85.1399 26.7655 84.8168 25.2358 84.8169 23.171C84.8169 22.7145 84.8278 22.2798 84.8495 21.8668C84.8711 21.4539 84.8983 21.0627 84.9309 20.6931L85.501 15.3298H81.7384C81.0869 22.1114 80.5522 26.146 80.1341 27.4339C79.7159 28.7217 79.0074 29.3656 78.0085 29.3657C77.5576 29.3546 77.1273 29.1742 76.8031 28.8603C76.6152 28.6936 76.4665 28.4872 76.3679 28.2561C76.2694 28.0249 76.2233 27.7747 76.233 27.5235C76.233 27.0238 76.6267 26.3256 77.4139 25.4288C78.2011 24.5322 78.6382 23.7144 78.7251 22.9754L79.7024 15.3298H78.1225C77.6771 15.3325 77.2388 15.4414 76.8439 15.6477C76.4804 15.8148 76.1642 16.0696 75.9236 16.3894L75.2232 17.4327H74.6531C75.185 15.7809 75.8393 14.5393 76.6158 13.7078C77.3921 12.8764 78.2852 12.4607 79.2952 12.4607H91.7394V15.3298H87.5371C87.4067 16.634 87.3063 17.9381 87.2357 19.2422C87.165 20.5464 87.1297 21.8559 87.1299 23.171C87.1299 24.0622 87.3362 24.7849 87.7488 25.3391C88.1614 25.8934 88.6772 26.1705 89.2962 26.1705C89.6762 26.1705 90.0752 26.0156 90.4934 25.7059C90.6919 25.5665 90.858 25.3858 90.9803 25.1762C91.1026 24.9666 91.1782 24.733 91.2019 24.4914C91.2345 24.2525 91.2589 24.065 91.2752 23.929C91.2915 23.7932 91.2996 23.709 91.2997 23.6763L92 23.6763Z" fill="#FCFDAF"/>
<path opacity="0.1" d="M92 23.6763C91.9456 25.361 91.5356 26.7113 90.7703 27.7273C90.0047 28.7434 89.0953 29.2514 88.042 29.2515C87.184 29.2515 86.4321 28.7543 85.7861 27.7599C85.1399 26.7655 84.8168 25.2358 84.8169 23.171C84.8169 22.7145 84.8278 22.2798 84.8495 21.8668C84.8711 21.4539 84.8983 21.0627 84.9309 20.6931L85.501 15.3298H81.7384C81.0869 22.1114 80.5522 26.146 80.1341 27.4339C79.7159 28.7217 79.0074 29.3656 78.0085 29.3657C77.5576 29.3546 77.1273 29.1742 76.8031 28.8603C76.6152 28.6936 76.4665 28.4872 76.3679 28.2561C76.2694 28.0249 76.2233 27.7747 76.233 27.5235C76.233 27.0238 76.6267 26.3256 77.4139 25.4288C78.2011 24.5322 78.6382 23.7144 78.7251 22.9754L79.7024 15.3298H78.1225C77.6771 15.3325 77.2388 15.4414 76.8439 15.6477C76.4804 15.8148 76.1642 16.0696 75.9236 16.3894L75.2232 17.4327H74.6531C75.185 15.7809 75.8393 14.5393 76.6158 13.7078C77.3921 12.8764 78.2852 12.4607 79.2952 12.4607H91.7394V15.3298H87.5371C87.4067 16.634 87.3063 17.9381 87.2357 19.2422C87.165 20.5464 87.1297 21.8559 87.1299 23.171C87.1299 24.0622 87.3362 24.7849 87.7488 25.3391C88.1614 25.8934 88.6772 26.1705 89.2962 26.1705C89.6762 26.1705 90.0752 26.0156 90.4934 25.7059C90.6919 25.5665 90.858 25.3858 90.9803 25.1762C91.1026 24.9666 91.1782 24.733 91.2019 24.4914C91.2345 24.2525 91.2589 24.065 91.2752 23.929C91.2915 23.7932 91.2996 23.709 91.2997 23.6763L92 23.6763Z" fill="black"/>
<path d="M92 23.167C91.9456 24.8517 91.5356 26.2021 90.7703 27.218C90.0047 28.2341 89.0953 28.7422 88.042 28.7423C87.184 28.7423 86.4321 28.245 85.7861 27.2506C85.1399 26.2562 84.8168 24.7266 84.8169 22.6617C84.8169 22.2052 84.8278 21.7705 84.8495 21.3575C84.8711 20.9446 84.8983 20.5534 84.9309 20.1838L85.501 14.8205H81.7384C81.0869 21.6021 80.5522 25.6368 80.1341 26.9246C79.7159 28.2124 79.0074 28.8563 78.0085 28.8564C77.5576 28.8453 77.1273 28.6649 76.8031 28.351C76.6152 28.1843 76.4665 27.9779 76.3679 27.7468C76.2694 27.5156 76.2233 27.2654 76.233 27.0142C76.233 26.5145 76.6267 25.8163 77.4139 24.9195C78.2011 24.0229 78.6382 23.2051 78.7251 22.4661L79.7024 14.8205H78.1225C77.6771 14.8232 77.2388 14.9322 76.8439 15.1384C76.4804 15.3055 76.1642 15.5604 75.9236 15.8801L75.2232 16.9235H74.6531C75.185 15.2716 75.8393 14.03 76.6158 13.1985C77.3921 12.3671 78.2852 11.9514 79.2952 11.9514H91.7394V14.8205H87.5371C87.4067 16.1247 87.3063 17.4288 87.2357 18.7329C87.165 20.0371 87.1297 21.3467 87.1299 22.6617C87.1299 23.5529 87.3362 24.2757 87.7488 24.8298C88.1614 25.3841 88.6772 25.6612 89.2962 25.6612C89.6762 25.6612 90.0752 25.5063 90.4934 25.1966C90.6919 25.0572 90.858 24.8765 90.9803 24.6669C91.1026 24.4573 91.1782 24.2237 91.2019 23.9821C91.2345 23.7432 91.2589 23.5557 91.2752 23.4197C91.2915 23.284 91.2996 23.1997 91.2997 23.167H92Z" fill="#FCFDAF"/>
</svg>
